<svg width="16" height="16" viewBox="0 0 16 16" fill="none" xmlns="http://www.w3.org/2000/svg">
<g opacity="0.37214">
<rect opacity="0.01" width="16" height="16" fill="black"/>
<path fill-rule="evenodd" clip-rule="evenodd" d="M14.2125 13.3516L10.1547 9.29375C10.7844 8.47969 11.125 7.48438 11.125 6.4375C11.125 5.18438 10.6359 4.00938 9.75156 3.12344C8.86719 2.2375 7.68906 1.75 6.4375 1.75C5.18594 1.75 4.00781 2.23906 3.12344 3.12344C2.2375 4.00781 1.75 5.18438 1.75 6.4375C1.75 7.68906 2.23906 8.86719 3.12344 9.75156C4.00781 10.6375 5.18438 11.125 6.4375 11.125C7.48438 11.125 8.47813 10.7844 9.29219 10.1562L13.35 14.2125C13.4 14.2625 13.4812 14.2625 13.5312 14.2125L14.2125 13.5328C14.2625 13.4828 14.2625 13.4016 14.2125 13.3516ZM8.9125 8.9125C8.25 9.57344 7.37187 9.9375 6.4375 9.9375C5.50312 9.9375 4.625 9.57344 3.9625 8.9125C3.30156 8.25 2.9375 7.37187 2.9375 6.4375C2.9375 5.50312 3.30156 4.62344 3.9625 3.9625C4.625 3.30156 5.50312 2.9375 6.4375 2.9375C7.37187 2.9375 8.25156 3.3 8.9125 3.9625C9.57344 4.625 9.9375 5.50312 9.9375 6.4375C9.9375 7.37187 9.57344 8.25156 8.9125 8.9125Z" fill="#0B0B0B" fill-opacity="0.65"/>
</g>
</svg>
